<svg version="1.1" id="Layer_1" xmlns="http://www.w3.org/2000/svg" xmlns:xlink="http://www.w3.org/1999/xlink" x="0px" y="0px" width="100%" viewBox="0 0 160 160" xml:space="preserve">
  <path fill="#FFFFFF" d="M40.675255,85.387054 C32.830414,71.897385 25.112204,58.755913 17.618158,45.487827 C12.629230,36.655014 16.706234,29.942465 26.848238,29.920643 C35.843151,29.901291 44.842525,30.072065 53.830833,29.826241 C57.252819,29.732651 59.323128,30.782551 61.014626,33.764793 C71.881844,52.924583 82.887657,72.005760 93.843468,91.115326 C96.398552,95.572006 98.729233,100.175034 101.549606,104.456146 C103.689896,107.704941 103.476883,110.345848 101.516403,113.588249 C96.892036,121.236382 92.618004,129.095932 88.179214,136.856781 C83.376022,145.254776 75.209862,145.380508 70.310806,136.947876 C60.413971,119.912674 50.691551,102.776146 40.675255,85.387054 M64.135750,99.299484 C69.037949,107.612083 73.940147,115.924675 79.281754,124.982361 C82.070236,120.105293 84.633453,116.230339 86.511185,112.047653 C87.294846,110.302040 87.392700,107.467514 86.491592,105.865334 C75.382004,86.112534 64.060715,66.478241 52.676205,46.881817 C51.842972,45.447552 50.166397,43.655300 48.766724,43.549221 C43.543602,43.153378 38.272465,43.391068 32.108921,43.391068 C43.006966,62.345619 53.434174,80.481270 64.135750,99.299484 z"/>
  <path fill="#FFFFFF" d="M108.133362,71.649796 C110.496284,69.394226 112.553741,66.880753 114.611191,64.367287 C114.365898,63.924068 114.120598,63.480858 113.875298,63.037643 C106.677567,63.037643 99.468735,62.798016 92.286392,63.130554 C88.199249,63.319786 85.948296,61.802639 84.055374,58.298283 C78.968399,48.880795 73.544159,39.645493 68.028198,29.940901 C90.404907,29.940901 112.337265,29.760571 134.258362,30.175415 C136.916199,30.225714 140.358353,32.931042 141.960327,35.374146 C145.168320,40.266541 142.854507,43.653263 137.054367,43.650349 C122.583122,43.643078 108.111885,43.647949 93.637169,43.647949 C93.100098,48.195889 94.388710,49.636581 99.222404,49.646736 C112.032738,49.673645 124.843178,49.655861 138.359970,49.655861 C128.500290,66.786018 118.894821,83.474495 108.887535,100.861099 C102.791679,90.331009 97.052162,80.416473 90.597397,69.266411 C96.996330,70.055756 102.412109,70.723824 108.133362,71.649796 z"/>
  <path fill="#8a9a5b" d="M63.998566,98.958206 C53.434174,80.481270 43.006966,62.345619 32.108921,43.391068 C38.272465,43.391068 43.543602,43.153378 48.766724,43.549221 C50.166397,43.655300 51.842972,45.447552 52.676205,46.881817 C64.060715,66.478241 75.382004,86.112534 86.491592,105.865334 C87.392700,107.467514 87.294846,110.302040 86.511185,112.047653 C84.633453,116.230339 82.070236,120.105293 79.281754,124.982361 C73.940147,115.924675 69.037949,107.612083 63.998566,98.958206 z"/>
</svg>